<svg width="1024" height="1024" viewBox="0 0 1024 1024" fill="none" xmlns="http://www.w3.org/2000/svg">
<path d="M512 1024C794.77 1024 1024 794.77 1024 512C1024 229.23 794.77 0 512 0C229.23 0 0 229.23 0 512C0 794.77 229.23 1024 512 1024Z" fill="white"/>
<mask id="mask0" mask-type="alpha" maskUnits="userSpaceOnUse" x="286" y="0" width="572" height="962">
<path d="M766.989 0L501.882 530.214L376.412 279.273H286.356L501.882 687.051L857.044 0H766.989Z" fill="#5077C5"/>
<path d="M472.537 869.186V961.265H552.474V713.36L472.537 869.186Z" fill="#5077C5"/>
</mask>
<g mask="url(#mask0)">
<path d="M512 1024C794.77 1024 1024 794.77 1024 512C1024 229.23 794.77 0 512 0C229.23 0 0 229.23 0 512C0 794.77 229.23 1024 512 1024Z" fill="#5077C5"/>
</g>
</svg>
